<svg viewBox="0 0 406 96" class="css-1j8o68f">
    <defs id="SvgjsDefs4366"></defs>
    <g id="SvgjsG4367" featurekey="symbolFeature-0" transform="matrix(1.1458063794224813,0,0,1.1458063794224813,-2.290569205404536,11.92923964620151)" fill="#2896cc">
        <g xmlns="http://www.w3.org/2000/svg">
            <circle cx="32" cy="14.796" r="12.116"></circle>
            <path d="M11.317,49.535c0.266-0.379,0.291-0.391,0.671-0.74c0.708-0.65,1.139-0.963,1.07-2.072   c-0.044-0.707-0.646-1.393-0.552-1.938c0.093-0.539,0.507-0.33,0.442-1.027c-0.041-0.445-0.279-0.807-0.594-1.115   c-0.282-0.277-0.86-0.385-1.071-0.732c-0.188-0.309,0.026-0.771-0.054-1.115c-0.235-0.998-1.035-1.43-1.922-1.656   c-1.105-0.279-1.329-0.27-1.306-1.393c0.02-0.928,0.006-1.094-0.333-1.912l-0.277-0.355c-0.73-0.092-1.451,0.539-1.922,1.043   c-1.049,1.127-2.27,2.551-2.939,3.926c-0.71,1.461-0.612,3.498-0.262,5.055c0.735,3.266,4.453,8.924,8.242,5.123   C10.842,50.293,11.052,49.91,11.317,49.535z"></path>
            <path d="M51.928,50.486l-0.193-0.285c-0.172-0.246-0.172-0.246-0.506-0.553L51.1,49.531c-0.693-0.633-1.412-1.287-1.314-2.881   c0.033-0.541,0.236-1,0.4-1.371c0.033-0.074,0.074-0.172,0.109-0.234c-0.248-0.283-0.463-0.701-0.398-1.395   c0.064-0.67,0.379-1.287,0.938-1.836c0.25-0.246,0.537-0.389,0.766-0.502c0.004-0.004,0.008-0.006,0.012-0.006   c-0.021-0.213-0.039-0.482,0.031-0.777c0.301-1.277,1.23-2.123,2.764-2.514c0,0,0.225-0.053,0.354-0.086V23.514L32,30.241   L9.24,23.514V37.93c0.129,0.033,0.353,0.086,0.353,0.086c1.534,0.391,2.464,1.236,2.765,2.514c0.069,0.295,0.053,0.564,0.031,0.777   c0.004,0,0.008,0.002,0.012,0.006c0.229,0.113,0.516,0.256,0.766,0.502c0.56,0.549,0.874,1.166,0.938,1.836   c0.063,0.693-0.15,1.111-0.398,1.395c0.034,0.063,0.077,0.16,0.11,0.234c0.162,0.371,0.366,0.83,0.399,1.371   c0.098,1.594-0.62,2.248-1.314,2.881l-0.129,0.117c-0.334,0.307-0.334,0.307-0.506,0.553l-0.192,0.285   c-0.197,0.297-0.42,0.635-0.741,0.955c-0.661,0.664-1.363,1.1-2.092,1.352v2.209L32,61.32l0,0l22.76-6.318v-2.209   c-0.729-0.252-1.43-0.688-2.092-1.352C52.346,51.121,52.123,50.783,51.928,50.486z"></path>
            <path d="M61.469,40.447c-0.67-1.375-1.891-2.799-2.939-3.926c-0.471-0.504-1.191-1.135-1.922-1.043l-0.277,0.355   c-0.34,0.818-0.354,0.984-0.334,1.912c0.023,1.123-0.199,1.113-1.305,1.393c-0.887,0.227-1.686,0.658-1.922,1.656   c-0.08,0.344,0.135,0.807-0.055,1.115c-0.211,0.348-0.787,0.455-1.07,0.732c-0.314,0.309-0.553,0.67-0.594,1.115   c-0.064,0.697,0.35,0.488,0.441,1.027c0.094,0.545-0.506,1.23-0.551,1.938c-0.068,1.109,0.363,1.422,1.07,2.072   c0.381,0.35,0.404,0.361,0.672,0.74c0.264,0.375,0.473,0.758,0.805,1.09c3.789,3.801,7.506-1.857,8.242-5.123   C62.082,43.945,62.18,41.908,61.469,40.447z"></path>
        </g>
    </g>
    <g id="SvgjsG4368" featurekey="textGroupContainer" transform="matrix(1,0,0,1,405,0)" fill="#2896cc">
        <rect xmlns="http://www.w3.org/2000/svg" y="0" height="1" width="1" opacity="0"></rect>
        <rect xmlns="http://www.w3.org/2000/svg" y="0" x="-316" width="3" height="96"></rect>
    </g>
    <g id="SvgjsG4369" featurekey="vMvB0T-0" transform="matrix(2.9419456536511803,0,0,2.9419456536511803,104.05805434634883,12.820605954993912)" fill="#2896cc">
        <path d="M1 20 l0 -16 l3.24 0 c2.06 0 2.76 1.26 2.76 3.68 c0 2.18 -0.26 3.42 -0.88 4.02 l0 0.12 c0.52 0.18 0.68 1.12 0.88 3.46 l0.4 4.72 l-2 0 l-0.26 -4.72 c-0.14 -2.38 -0.5 -2.88 -1.1 -2.88 l-1.04 0 l0 7.6 l-2 0 z M3 10.8 l1.24 0 c0.7 0 0.9 -0.7 0.9 -3.12 c0 -1.58 -0.3 -2.08 -0.9 -2.08 l-1.24 0 l0 5.2 z M9 20 l0 -8.4 c0 -5.58 0 -7.78 3 -7.78 s3 2.2 3 7.78 l0 8.4 l-2 0 l0 -4.6 l-2 0 l0 4.6 l-2 0 z M11 13.8 l2 0 l0 -2.2 c0 -5.2 0 -6.18 -1 -6.18 s-1 0.98 -1 6.18 l0 2.2 z M17 20 l0 -16 l4.2 0 l0 1.6 l-2.2 0 l0 6 l1.8 0 l0 1.6 l-1.8 0 l0 6.8 l-2 0 z M22.6 20 l0 -16 l2 0 l0 16 l-2 0 z M26.6 20 l0 -16 l2 0 l0 6.34 l2 -6.34 l2 0 l-2.4 7.6 l2.4 8.4 l-2 0 l-2 -7 l0 7 l-2 0 z M33.800000000000004 20 l0 -16 l2 0 l0 16 l-2 0 z M42.2 20 l0 -16 l2 0 l0 14 l2.6 0 l0 2 l-4.6 0 z M48 20 l0 -16 l4.6 0 l0 1.6 l-2.6 0 l0 5.2 l2.2 0 l0 1.6 l-2.2 0 l0 5.6 l2.6 0 l0 2 l-4.6 0 z M54 20 l0 -8.4 c0 -5.58 0 -7.78 3 -7.78 s3 2.2 3 7.78 l0 8.4 l-2 0 l0 -4.6 l-2 0 l0 4.6 l-2 0 z M56 13.8 l2 0 l0 -2.2 c0 -5.2 0 -6.18 -1 -6.18 s-1 0.98 -1 6.18 l0 2.2 z M62 20 l0 -16 l3.24 0 c2.06 0 2.76 1.26 2.76 3.68 c0 2.18 -0.26 3.42 -0.88 4.02 l0 0.12 c0.52 0.18 0.68 1.12 0.88 3.46 l0.4 4.72 l-2 0 l-0.26 -4.72 c-0.14 -2.38 -0.5 -2.88 -1.1 -2.88 l-1.04 0 l0 7.6 l-2 0 z M64 10.8 l1.24 0 c0.7 0 0.9 -0.7 0.9 -3.12 c0 -1.58 -0.3 -2.08 -0.9 -2.08 l-1.24 0 l0 5.2 z M70 20 l0 -16 l1.8 0 l2.62 9.8 l-0.02 -0.2 l0 -9.6 l2 0 l0 16 l-1.8 0 l-2.62 -8.8 l0.02 0.2 l0 8.6 l-2 0 z M78.4 20 l0 -16 l2 0 l0 16 l-2 0 z M82.4 20 l0 -16 l1.8 0 l2.62 9.8 l-0.02 -0.2 l0 -9.6 l2 0 l0 16 l-1.8 0 l-2.62 -8.8 l0.02 0.2 l0 8.6 l-2 0 z M90.60000000000001 11.58 c0 -5.58 0 -7.78 3 -7.78 c2.28 0 2.82 1.26 2.96 4.28 l-1.86 0 c-0.08 -2.18 -0.3 -2.68 -1.1 -2.68 c-1.12 0 -1.12 0.98 -1.12 6.18 c0 5.78 0 6.62 1.12 6.62 c1.06 0 1.12 -0.76 1.12 -5 l-1.32 0 l0 -1.6 l3.2 0 l0 0.78 c0 5.6 0 7.82 -3 7.82 s-3 -2.22 -3 -8.62 z"></path>
    </g>
</svg>
